<?xml version="1.0" encoding="UTF-8" standalone="no"?>
<svg
   xmlns:dc="http://purl.org/dc/elements/1.1/"
   xmlns:cc="http://creativecommons.org/ns#"
   xmlns:rdf="http://www.w3.org/1999/02/22-rdf-syntax-ns#"
   xmlns:svg="http://www.w3.org/2000/svg"
   xmlns="http://www.w3.org/2000/svg"
   xmlns:sodipodi="http://sodipodi.sourceforge.net/DTD/sodipodi-0.dtd"
   xmlns:inkscape="http://www.inkscape.org/namespaces/inkscape"
   width="608.49841mm"
   height="110.21929mm"
   viewBox="0 0 608.49841 110.21929"
   version="1.1"
   id="svg8"
   inkscape:version="1.0.2 (e86c870879, 2021-01-15, custom)"
   sodipodi:docname="AoDS valkoinen banneri1.svg">
  <defs
     id="defs2">
    <clipPath
       clipPathUnits="userSpaceOnUse"
       id="clipPath26">
      <path
         d="M 0,170.04 H 566.93 V 0 H 0 Z"
         id="path24" />
    </clipPath>
    <clipPath
       clipPathUnits="userSpaceOnUse"
       id="clipPath178">
      <path
         d="M 0,170.05 H 170.05 V 0 H 0 Z"
         id="path176" />
    </clipPath>
  </defs>
  <sodipodi:namedview
     id="base"
     pagecolor="#ffffff"
     bordercolor="#666666"
     borderopacity="1.0"
     inkscape:pageopacity="0.0"
     inkscape:pageshadow="2"
     inkscape:zoom="0.35"
     inkscape:cx="1044.5732"
     inkscape:cy="444.38213"
     inkscape:document-units="mm"
     inkscape:current-layer="layer1"
     inkscape:document-rotation="0"
     showgrid="false"
     fit-margin-top="0"
     fit-margin-left="0"
     fit-margin-right="0"
     fit-margin-bottom="0"
     inkscape:window-width="1600"
     inkscape:window-height="837"
     inkscape:window-x="-8"
     inkscape:window-y="-8"
     inkscape:window-maximized="1"
     inkscape:pagecheckerboard="true" />
  <metadata
     id="metadata5">
    <rdf:RDF>
      <cc:Work
         rdf:about="">
        <dc:format>image/svg+xml</dc:format>
        <dc:type
           rdf:resource="http://purl.org/dc/dcmitype/StillImage" />
        <dc:title></dc:title>
      </cc:Work>
    </rdf:RDF>
  </metadata>
  <g
     inkscape:label="Taso 1"
     inkscape:groupmode="layer"
     id="layer1"
     transform="translate(51.739411,-86.874471)">
    <g
       id="g8121"
       transform="matrix(10.821497,0,0,10.821497,-827.17069,-1228.277)"
       style="fill:#ffffff;fill-opacity:1">
      <g
         aria-label="Age of Dark Souls"
         id="text2422"
         style="font-size:14.1111px;line-height:1.25;font-family:'Ink Free';-inkscape-font-specification:'Ink Free';fill:#ffffff;fill-opacity:1;stroke-width:0.264583"
         transform="matrix(0.52721848,0,0,0.71103816,25.826724,50.977609)">
        <path
           id="path2424"
           style="fill:#ffffff;fill-opacity:1;stroke-width:0.264583"
           d="m 95.933503,105.22796 c -0.555782,0.38908 -1.075876,0.28087 -0.957988,0.80505 0.318352,1.3035 1.439641,5.06697 1.439641,5.06697 0,0 -1.460711,-0.67449 -1.414,-1.26843 -0.300889,-1.15895 -0.385708,-2.36262 -0.689519,-3.52203 0.04489,-0.55878 -0.42465,-0.36273 -0.791724,-0.31032 -0.999027,0.15094 -1.995386,0.31891 -2.990952,0.49104 -0.54444,1.4932 -1.05177,3.00191 -1.46073,4.53777 -0.370971,0.63451 -1.825546,0.55312 -1.825546,0.55312 0,0 2.015924,-3.65464 2.496051,-4.89336 -0.582787,0.1184 -1.146595,0.32009 -1.735665,0.40922 -0.668998,-0.1785 -1.410638,-0.73995 -0.912568,-0.58542 0.529505,-0.12117 2.39723,-0.46808 2.930454,-0.57169 0.503391,-1.55964 1.138829,-3.15673 1.597451,-4.72981 0.294063,-0.7915 0.419229,-1.577384 0.419229,-1.577384 0,0 1.044938,1.576754 1.246135,1.962324 0.591078,1.14242 1.072524,2.34662 1.450296,3.56883 0.40484,0.12494 2.059667,-0.53809 1.366478,-0.0528 z m -1.848554,0.0487 c -0.399149,-1.41137 -0.775904,-2.80458 -1.698867,-3.9852 -0.283123,0.24836 -0.415288,0.81955 -0.631525,1.22323 -0.345932,1.01607 -0.644286,2.04801 -0.981707,3.06623 -0.135216,0.48769 0.642497,0.0229 0.914808,0.0763 0.797826,-0.13468 1.596731,-0.26314 2.397291,-0.38055 z"
           sodipodi:nodetypes="sccccccccccccccccsssccccss" />
        <path
           id="path2426"
           style="fill:#ffffff;fill-opacity:1;stroke-width:0.264583"
           d="m 103.4406,109.4394 c 0.0303,1.70537 -1.45187,3.01876 -2.8939,3.89479 -0.50316,0.29097 -2.037059,0.20471 -2.037059,0.20471 0,0 -1.233439,-0.24563 -0.796426,-0.30059 1.271503,-0.47017 4.291565,-1.66576 4.741635,-3.04875 0.49784,-1.17106 0.18164,-2.08029 -0.0311,-3.24119 -0.16691,-0.83892 -0.38726,-1.66814 -0.49298,-2.51841 -0.64863,1.60157 -1.57308,3.1218 -2.84339,4.30653 -0.43598,0.3924 -1.060559,0.79063 -1.661582,0.53711 -0.490908,-0.29995 -0.477879,-0.96131 -0.44767,-1.46877 0.153544,-1.27323 0.745408,-2.46199 1.483692,-3.49556 0.558027,-0.72029 1.68394,-1.60449 2.65255,-1.69485 1.7934,-0.49441 2.09593,1.08929 2.09593,1.08929 0,0 -1.272,-0.77431 -1.87678,-0.57295 -0.42534,-0.22944 -1.26612,0.47112 -1.612906,0.73524 -0.955862,0.84364 -1.595685,2.00838 -1.959677,3.21998 -0.09909,0.44956 -0.247354,1.00731 0.04234,1.41111 0.426455,0.27419 0.898469,-0.13872 1.216421,-0.4057 1.368532,-1.28799 3.157902,-5.31115 3.157902,-5.31115 0,0 0.012,0.12765 0.32475,0.44052 0.26248,1.90831 0.88182,4.18832 0.93782,6.12466 l 5.5e-4,0.0936 z"
           sodipodi:nodetypes="ccccccccccccccccccccccc" />
        <path
           id="path2428"
           style="fill:#ffffff;fill-opacity:1;stroke-width:0.264583"
           d="m 110.79054,105.15666 c 0,0 -0.51529,1.69223 -0.9052,2.31169 -0.3998,0.63516 -1.07211,1.4089 -1.50104,1.72523 -0.83792,0.56413 -2.05201,0.62839 -2.87285,-9.8e-4 -0.48148,-0.36845 -0.70974,-0.97279 -0.73124,-1.56469 -0.0948,-1.36795 0.44953,-2.73834 1.34123,-3.76282 0.58193,-0.66617 1.41624,-1.22472 2.33695,-1.15055 0.45189,0.0288 0.99499,0.27055 1.071,0.76703 0.0664,0.52198 -0.33365,0.9494 -0.73136,1.22426 -0.77329,0.57308 -1.72774,0.76326 -2.63046,1.06832 -0.33336,0.19853 -0.43597,0.3362 -0.58719,0.71634 -0.099,0.68652 -0.10867,1.49723 0.40652,2.03031 0.51028,0.46712 1.29265,0.44005 1.90676,0.2213 0.71962,-0.26149 1.1679,-0.92173 1.56714,-1.53578 0.24267,-0.37724 0.79366,-1.68843 0.79366,-1.68843 l 0.54043,-0.45441 c 0,0 -0.0785,0.16712 -0.004,0.0932 z m -1.88894,-1.38992 c -0.0559,-0.44653 -0.61901,-0.51541 -0.98053,-0.46586 -0.79494,0.12392 -1.40381,0.75616 -1.80262,1.41695 -0.089,0.18292 -0.29976,0.50614 -0.2369,0.63807 1.02223,-0.14453 2.00771,-0.57625 2.80485,-1.23185 0.10372,-0.0949 0.19322,-0.21514 0.2152,-0.35731 z"
           sodipodi:nodetypes="cscccccccccccccccccccccc" />
        <path
           id="path2430"
           style="fill:#ffffff;fill-opacity:1;stroke-width:0.264583"
           d="m 120.30333,106.65952 c -0.0373,0.78446 -0.47494,1.49583 -1.00718,2.04942 -0.59035,0.60419 -1.41481,0.99503 -2.26867,0.97183 -0.59358,0.0138 -1.24497,-0.19799 -1.55727,-0.73822 -0.42285,-0.67488 -0.2948,-1.50922 -0.16233,-2.25018 0.19832,-1.06202 0.6096,-2.08813 1.22178,-2.97893 0.22053,-0.29288 1.7114,-0.019 1.7114,-0.019 0,0 -0.76594,0.0875 -0.92606,0.28365 -0.60204,0.79633 -1.06082,1.71043 -1.30243,2.68035 -0.10679,0.52975 -0.18453,1.08737 -0.0702,1.62154 0.13626,0.42708 0.58738,0.65872 1.01244,0.68184 0.67563,0.0881 1.35987,-0.18192 1.84029,-0.65491 0.48141,-0.44502 0.87626,-1.08616 0.80595,-1.76411 -0.0953,-0.5897 -0.60464,-0.97596 -1.04708,-1.3178 -0.29836,-0.23579 -1.22076,-0.63984 -1.41742,-0.97379 -0.0325,-0.34239 1.80878,-0.59396 1.80878,-0.59396 0,0 -0.38682,0.55131 -0.23855,0.68664 0.24323,0.24328 0.50588,0.36721 0.70206,0.62975 0.45021,0.40912 0.87888,0.93234 0.89144,1.57034 0.002,0.0385 0.003,0.0771 0.003,0.11558 z"
           sodipodi:nodetypes="ccccccccccccccccccccc" />
        <path
           id="path2432"
           style="fill:#ffffff;fill-opacity:1;stroke-width:0.264583"
           d="m 127.06254,100.60585 c 0.0304,0.43571 -0.0737,0.88888 -0.23038,1.28663 -0.15182,-0.38047 -0.18199,-0.81664 -0.37709,-1.19036 -0.23097,-0.47525 -0.69955,-0.982753 -1.2819,-0.83735 -0.77497,0.14555 -1.1154,0.97708 -1.2861,1.6585 -0.24084,0.90514 -0.32326,1.84523 -0.32411,2.77966 1.02876,-0.06 2.01475,-0.43517 3.04359,-0.47581 0.45356,0.12223 1.03586,1.0446 1.03586,1.0446 0,0 -2.71956,-0.13538 -3.39034,-0.0731 -0.2156,0.0323 -0.43121,0.0647 -0.64682,0.097 0.0531,2.051 0.32983,6.77846 0.32983,6.77846 0,0 -0.9205,-0.69752 -0.78134,-1.1058 -0.0121,-1.85073 -0.12891,-3.69881 -0.23987,-5.54566 -0.58826,0.0702 -1.93278,0.64747 -1.93278,0.64747 -0.44281,0.64945 0.14623,-0.88531 0.14623,-0.88531 0,0 1.30114,-0.25669 1.7442,-0.34071 0.0152,-1.44774 0.14009,-2.96871 0.88034,-4.24749 0.39485,-0.705844 1.25863,-1.128143 2.05124,-0.903058 0.58984,0.181791 1.1869,0.670101 1.25944,1.312338 z"
           sodipodi:nodetypes="scccccccccccccccccss" />
        <path
           id="path2434"
           style="fill:#ffffff;fill-opacity:1;stroke-width:0.264583"
           d="m 139.57905,103.01885 c 0.0254,1.3161 -0.77615,2.47044 -1.67585,3.35885 -1.10525,1.1256 -2.33259,2.13764 -3.65381,2.99775 -0.44114,0.10209 -1.41348,0.73541 -1.41348,0.73541 0,0 0.29142,-1.26602 0.25035,-1.81823 0.084,-1.89903 -0.12813,-3.80101 -0.0167,-5.69798 0.77373,-0.94789 2.45216,-1.63015 2.45216,-1.63015 0,0 -1.82625,1.27161 -1.85287,2.16418 0.007,1.90102 0.10702,3.8024 0.0541,5.70398 1.05486,-0.49506 1.97031,-1.23722 2.86005,-1.97875 0.86975,-0.77924 1.75393,-1.63786 2.16249,-2.75824 0.25608,-0.69635 0.29299,-1.62908 -0.35917,-2.12512 -0.7105,-0.53831 -1.63793,-0.6255 -2.49214,-0.75437 -1.34332,-0.16275 -2.71043,-0.16116 -4.04801,0.0529 -1.34397,0.26117 -1.91277,-1.16779 -1.91277,-1.16779 0,0 1.32836,0.5948 1.69184,0.52812 1.76109,-0.24454 3.57075,-0.20487 5.31647,0.14232 0.92645,0.20903 2.00185,0.50953 2.46347,1.42731 0.12059,0.255 0.17529,0.53857 0.17384,0.81982 z"
           sodipodi:nodetypes="cccccccccccccccccccc" />
        <path
           id="path2436"
           style="fill:#ffffff;fill-opacity:1;stroke-width:0.264583"
           d="m 146.49347,108.6774 c 0.18641,0.80181 0.62948,1.13221 0.62948,1.13221 0,0 -0.79907,0.23324 -1.21368,-0.76746 -0.21272,-0.51343 -0.085,-1.19234 -0.0962,-1.74673 0.002,-0.4649 0.048,-0.93277 0.0144,-1.396 -0.0214,-0.24546 -0.084,-0.0581 -0.084,-0.0581 0,0 -1.56306,2.27371 -2.56974,3.09697 -0.59926,0.5111 -1.41312,0.88773 -2.21222,0.70588 -0.51823,-0.17045 -0.68942,-0.81375 -0.55203,-1.29641 0.18838,-0.84731 0.66525,-1.59303 1.1266,-2.31533 0.78724,-1.15896 1.55923,-2.57991 2.89905,-3.03375 0.37731,-0.12781 0.5948,-0.14392 0.75754,-0.12195 0.18109,0.0245 0.28167,0.0205 0.53638,0.0977 0.80171,0.41233 0.836,0.73276 0.836,0.73276 0,0 -0.24329,0.288 -0.18313,1.80155 -0.0188,1.06221 -0.14387,2.06999 0.11155,3.16866 z m -4.98121,0.254 c 0.91239,0.006 1.64965,-0.64286 2.22451,-1.28374 0.67978,-0.77593 1.2096,-1.66843 1.73109,-2.55377 0.1702,-0.39269 0.2444,-0.85932 0.10546,-1.27104 -0.17084,-0.39635 -0.70694,-0.49312 -1.02981,-0.22545 -0.73371,0.45731 -1.28431,1.14475 -1.82317,1.80814 -0.63459,0.819 -1.23433,1.69853 -1.54327,2.69671 -0.1083,0.28424 -0.11746,0.81948 0.29503,0.82807 l 0.0402,0.001 z"
           sodipodi:nodetypes="scscccccccsscccscccccccccc" />
        <path
           id="path2438"
           style="fill:#ffffff;fill-opacity:1;stroke-width:0.264583"
           d="m 153.38157,105.04534 c 0,0 -0.53041,-0.96354 -0.87499,-1.2863 -0.34847,-0.21075 -0.68,-0.33036 -1.01779,-0.33102 -0.36834,0.0504 -0.59367,0.39701 -0.81166,0.66318 -0.69179,0.96075 -1.19656,2.04088 -1.64367,3.13271 0.0233,0.72306 0.10163,1.44334 0.13968,2.16517 0.0369,0.28255 -0.75073,0.80493 -0.75073,0.80493 0,0 0.039,-1.22711 -0.002,-1.61744 -0.0447,-1.07688 -0.0602,-2.15459 -0.0835,-3.23208 -0.0653,-2.00085 -0.6481,-2.76689 -0.6481,-2.76689 0,0 1.21489,0.30243 1.27356,0.62466 0.0939,0.51912 0.0436,1.05083 0.0564,1.57593 v 1.44384 c 0.42478,-1.07081 0.94766,-2.13557 1.75992,-2.96796 0.31446,-0.30398 0.72372,-0.60064 1.19239,-0.51175 0.65352,0.12395 0.81062,0.17643 0.95897,0.48333 0.1708,0.35334 0.0353,0.0219 0.27412,0.6739 0.1329,0.36288 0.17698,1.14579 0.17698,1.14579 z"
           sodipodi:nodetypes="ccccccccccccccsssc" />
        <path
           id="path2440"
           style="fill:#ffffff;fill-opacity:1;stroke-width:0.264583"
           d="m 161.12761,103.46237 c 0,0 -1.13644,0.1625 -1.7883,0.37431 -0.69569,0.13241 -1.27842,0.65651 -1.85941,1.03362 -0.83439,0.59815 -1.64573,1.23755 -2.36456,1.97262 -0.0813,0.37939 0.39825,0.37707 0.63632,0.53739 1.1618,0.49651 2.29737,1.07763 3.51625,1.42399 0.29203,0.15302 1.02358,0.22574 1.02358,0.22574 0,0 -0.94161,0.46822 -1.42433,0.37571 -1.08404,-0.27754 -2.04439,-0.87871 -3.04761,-1.35476 -0.1971,-0.097 -0.39419,-0.19397 -0.59129,-0.29095 0.0562,0.6827 0.24461,2.29769 0.24461,2.29769 0,0 -0.85051,0.0315 -0.76598,-0.45832 -0.10097,-0.68107 -0.15536,-1.36791 -0.24065,-2.05102 -0.42383,-0.10118 -0.56746,-0.6416 -0.14111,-0.84666 -0.0626,-2.09774 -0.18585,-4.1938 -0.23846,-6.29178 -0.0442,-0.508029 0.28501,-0.991878 0.77835,-1.125403 0.26215,-0.11072 1.04416,-0.09235 0.61442,0.315009 -0.61709,1.051584 -0.57397,2.319594 -0.54955,3.496784 0.044,1.02322 0.0871,2.04652 0.14304,3.06917 1.1005,-1.0212 2.22656,-2.06419 3.58799,-2.7279 0.48025,-0.21194 1.68818,-0.18509 1.68818,-0.18509 z"
           sodipodi:nodetypes="cccccccccccccccccccccc" />
        <path
           id="path2442"
           style="fill:#ffffff;fill-opacity:1;stroke-width:0.264583"
           d="m 171.32897,107.11107 c -0.0203,1.12867 -0.87185,2.0749 -1.85937,2.52458 -1.00591,0.49617 -2.18743,0.4918 -3.265,0.27411 -1.15141,-0.27816 -0.84421,-1.37797 -0.84421,-1.37797 0,0 0.31813,0.26069 0.73648,0.60523 0.59682,0.21507 1.12129,0.15478 1.63973,0.1751 1.11782,0.0467 2.34001,-0.53739 2.74577,-1.62955 0.22737,-0.54988 -0.0134,-1.20155 -0.508,-1.51694 -0.94455,-0.66229 -2.1105,-0.85734 -3.16915,-1.26876 -0.74288,-0.26356 -1.57076,-0.55199 -2.01359,-1.24919 -0.36514,-0.63338 -0.0802,-1.42368 0.41219,-1.8996 1.04404,-1.0529 2.4796,-1.63585 3.91654,-1.909712 0.46778,-0.05229 0.97308,-0.164226 1.42617,0.009 0.27701,0.260112 0.27009,0.942862 0.27009,0.942862 0,0 -2.0309,-0.19401 -2.69786,0.0157 -0.88622,0.32089 -1.7836,0.73398 -2.4384,1.43092 -0.35934,0.34845 -0.39403,0.96548 -0.0328,1.32358 0.64625,0.62541 1.56991,0.78447 2.39051,1.07244 1.01113,0.31624 2.10816,0.61223 2.87029,1.39347 0.26898,0.2939 0.42563,0.68544 0.42066,1.08471 z"
           sodipodi:nodetypes="ccccccccccccccccccccc" />
        <path
           id="path2444"
           style="fill:#ffffff;fill-opacity:1;stroke-width:0.264583"
           d="m 177.49551,106.65952 c -0.0195,0.64461 -0.34737,1.24015 -0.73059,1.74142 -0.55255,0.68457 -1.35324,1.20908 -2.24849,1.26595 -0.61995,0.0564 -1.34674,-0.0444 -1.74638,-0.57597 -0.41885,-0.51058 -0.44444,-1.21042 -0.35727,-1.83585 0.13379,-1.09601 0.47254,-2.17051 1.04343,-3.11878 0.21337,-0.41365 0.5739,-0.8345 1.06672,-0.92862 0.32063,-0.0948 1.22537,-0.0334 1.22537,-0.0334 0,0 -0.81089,0.17811 -0.94805,0.4231 -0.36579,0.46613 -0.72533,0.94213 -0.98513,1.47791 -0.41173,0.78058 -0.71413,1.63604 -0.73126,2.52657 -0.0369,0.41988 0.0266,0.92211 0.42346,1.15848 0.44941,0.25555 1.00911,0.2621 1.49965,0.13275 0.68167,-0.2193 1.25509,-0.74076 1.5828,-1.37288 0.27533,-0.48766 0.31066,-1.14692 -0.071,-1.59048 -0.41181,-0.5046 -0.99261,-0.82146 -1.46452,-1.25991 -0.30597,-0.19704 -0.92305,-0.91908 -0.60602,-0.95053 0.24194,-0.0763 1.30272,0.28559 1.55177,0.26829 0.44413,0.0166 -0.40162,0.26055 -0.003,0.44554 0.47424,0.41629 0.98262,0.82623 1.30159,1.38087 0.13593,0.25949 0.19776,0.55392 0.19684,0.84553 z"
           sodipodi:nodetypes="cccccccccccccccccccccc" />
        <path
           id="path2446"
           style="fill:#ffffff;fill-opacity:1;stroke-width:0.264583"
           d="m 185.32603,110.06114 c 0,0 -1.31221,-0.0533 -1.54569,-0.38892 -0.32476,-0.39154 -0.4172,-0.91515 -0.50599,-1.40181 -0.1249,-0.95017 -0.0869,-1.91153 -0.12514,-2.86706 -0.006,-0.3245 -0.0114,-0.64904 -0.0234,-0.97339 -0.72362,1.63343 -1.59865,3.21751 -2.74415,4.59506 -0.27106,0.27375 -0.56742,0.62732 -0.98133,0.64081 -0.50078,-0.001 -0.64464,-0.54128 -0.67747,-0.94574 -0.1504,-1.37181 0.0173,-2.76628 0.366,-4.09673 0.14882,-0.52686 0.31885,-1.0563 0.60164,-1.52753 0.20593,-0.26844 0.61302,-0.2423 0.91438,-0.21509 -0.046,0.22926 -0.51789,0.45276 -0.56088,0.79677 -0.51856,1.09176 -0.76937,2.29873 -0.77548,3.50514 -0.0154,0.4991 -0.0412,1.01642 0.11119,1.49769 0.27075,0.31755 0.67375,-0.0705 0.86528,-0.30247 0.89019,-0.97953 1.47898,-2.17803 2.13778,-3.31413 0.32,-0.61301 0.66485,-1.25405 0.68824,-1.9605 0.0304,-0.2455 -0.14776,-0.44091 -0.25635,-0.61213 0.3153,0.19086 0.76637,0.30032 0.90418,0.68284 0.0257,1.6384 0.0266,3.28206 0.20611,4.9125 0.16819,0.84193 1.40108,1.97469 1.40108,1.97469 z"
           sodipodi:nodetypes="ccccccccccccccccccccc" />
        <path
           id="path2448"
           style="fill:#ffffff;fill-opacity:1;stroke-width:0.264583"
           d="m 186.98963,109.06958 c 0.25148,0.12606 0.716,0.29705 0.66701,0.61557 -0.41316,0.0391 -0.83142,-0.0358 -1.24272,-0.0682 -0.3291,-0.35571 -0.38773,-0.87956 -0.41474,-1.346 -0.0156,-1.48151 0.0242,-2.96358 0.0374,-4.4452 0.0304,-1.14708 0.0272,-2.29614 0.0863,-3.44181 -0.089,-0.388579 1.05119,-1.047997 1.05119,-1.047997 0,0 -0.28216,0.654008 -0.28064,0.964047 -0.0543,1.16323 -0.14132,2.32597 -0.17803,3.49052 -0.0476,1.36083 -0.0872,2.72316 -0.069,4.08468 0.0413,0.5378 0.2653,1.04887 0.60308,1.4662 -0.0866,-0.0906 -0.17323,-0.18117 -0.25985,-0.27176 z"
           sodipodi:nodetypes="cccccccccccsc" />
        <path
           id="path2450"
           style="fill:#ffffff;fill-opacity:1;stroke-width:0.264583"
           d="m 193.58212,107.60496 c -0.006,0.77272 -0.59182,1.39893 -1.20891,1.79012 -0.88818,0.54275 -1.97676,0.79579 -3.00678,0.60171 -0.34299,-0.0397 -0.45112,-0.46462 -0.15964,-0.65352 0.20855,-0.16674 1.1671,-0.68693 1.1671,-0.68693 0,0 -0.73904,0.5692 -0.39006,0.6137 0.60393,0.13792 1.24227,0.002 1.80688,-0.22892 0.47802,-0.21619 1.00102,-0.52562 1.16086,-1.05788 0.10281,-0.38323 -0.0941,-0.8028 -0.45029,-0.97493 -0.47572,-0.23467 -1.01033,-0.31388 -1.51958,-0.44949 -0.6941,-0.17909 -1.42259,-0.28136 -2.0637,-0.61838 -0.33826,-0.15749 -0.62126,-0.49702 -0.56847,-0.88922 0.0392,-0.68404 0.60833,-1.16728 1.13994,-1.51726 0.65936,-0.42282 1.40818,-0.71982 2.18262,-0.84243 1.01616,-0.0666 1.43146,1.26573 1.43146,1.26573 0,0 -0.72554,-0.46431 -1.49909,-0.39722 -0.45023,0.001 -0.93599,0.0128 -1.35384,0.16987 -0.4657,0.21625 -0.99246,0.48112 -1.17812,0.9956 -0.10935,0.27568 -0.0476,0.63992 0.24347,0.77418 0.57168,0.25178 1.19957,0.33788 1.79675,0.51059 0.67575,0.13498 1.35879,0.31761 1.96094,0.66269 0.3237,0.19181 0.52041,0.55655 0.50849,0.93199 z"
           sodipodi:nodetypes="sccccccccccccccccccccss" />
      </g>
      <path
         style="fill:#ffffff;fill-opacity:1;stroke-width:0.0954475"
         d="m 364.18629,477.21913 c -0.21092,-8.57575 -0.20574,-8.60559 1.95888,-11.28509 0.94923,-1.17501 1.15669,-1.31097 1.82833,-1.19815 3.14608,0.52844 5.10609,1.49381 5.81457,2.86387 0.47623,0.92092 0.53248,3.25472 0.11575,4.80235 -0.42576,1.58114 -1.79758,4.20328 -3.03647,5.80399 -1.22351,1.58084 -4.84664,5.34819 -5.83123,6.06335 l -0.66455,0.48269 z"
         id="path8090"
         transform="scale(0.26458333)" />
    </g>
  </g>
</svg>
