<?xml version="1.0" encoding="UTF-8" standalone="no"?>
<svg
   xmlns:dc="http://purl.org/dc/elements/1.1/"
   xmlns:cc="http://creativecommons.org/ns#"
   xmlns:rdf="http://www.w3.org/1999/02/22-rdf-syntax-ns#"
   xmlns:svg="http://www.w3.org/2000/svg"
   xmlns="http://www.w3.org/2000/svg"
   xmlns:sodipodi="http://sodipodi.sourceforge.net/DTD/sodipodi-0.dtd"
   xmlns:inkscape="http://www.inkscape.org/namespaces/inkscape"
   width="398.41599mm"
   height="95.561813mm"
   viewBox="0 0 398.41598 95.561814"
   version="1.1"
   id="svg8"
   inkscape:version="1.0.2 (e86c870879, 2021-01-15, custom)"
   sodipodi:docname="applemusic logo nettisivulle1.svg">
  <defs
     id="defs2">
    <clipPath
       clipPathUnits="userSpaceOnUse"
       id="clipPath26">
      <path
         d="M 0,170.04 H 566.93 V 0 H 0 Z"
         id="path24" />
    </clipPath>
    <clipPath
       clipPathUnits="userSpaceOnUse"
       id="clipPath178">
      <path
         d="M 0,170.05 H 170.05 V 0 H 0 Z"
         id="path176" />
    </clipPath>
  </defs>
  <sodipodi:namedview
     id="base"
     pagecolor="#ffffff"
     bordercolor="#666666"
     borderopacity="1.0"
     inkscape:pageopacity="0.0"
     inkscape:pageshadow="2"
     inkscape:zoom="0.35"
     inkscape:cx="157.30456"
     inkscape:cy="23.135418"
     inkscape:document-units="mm"
     inkscape:current-layer="layer1"
     inkscape:document-rotation="0"
     showgrid="false"
     fit-margin-top="0"
     fit-margin-left="0"
     fit-margin-right="0"
     fit-margin-bottom="0"
     inkscape:window-width="1600"
     inkscape:window-height="837"
     inkscape:window-x="-8"
     inkscape:window-y="-8"
     inkscape:window-maximized="1"
     inkscape:pagecheckerboard="true" />
  <metadata
     id="metadata5">
    <rdf:RDF>
      <cc:Work
         rdf:about="">
        <dc:format>image/svg+xml</dc:format>
        <dc:type
           rdf:resource="http://purl.org/dc/dcmitype/StillImage" />
        <dc:title></dc:title>
      </cc:Work>
    </rdf:RDF>
  </metadata>
  <g
     inkscape:label="Taso 1"
     inkscape:groupmode="layer"
     id="layer1"
     transform="translate(-183.01708,-198.32933)">
    <path
       d="m 349.49192,292.93066 v -64.82825 h -0.48096 l -25.93134,64.82825 H 312.9953 L 287.06396,228.10241 H 286.583 v 64.82825 h -12.00528 v -87.87833 h 15.36678 l 27.85211,70.11071 h 0.48097 l 27.85212,-70.11071 h 15.84702 v 87.87833 H 349.4912 Z m 80.19504,0 h -12.48534 v -11.0448 h -0.48097 c -3.3615,7.68348 -10.0845,12.00528 -19.68876,12.00528 -13.92606,0 -22.0896,-9.12402 -22.0896,-24.01056 v -41.29793 h 12.96576 v 38.89691 c 0,9.60426 4.80204,14.88654 13.44582,14.88654 9.60426,0 14.88654,-6.723 14.88654,-16.80732 v -36.97613 h 12.96558 z m 35.53559,-65.30849 c 14.88654,0 24.01056,8.16354 24.49062,20.16882 h -12.0051 c -0.96012,-6.24276 -5.28246,-10.08432 -12.48552,-10.08432 -7.20324,0 -12.00528,3.36132 -12.00528,8.64378 0,3.84156 2.88126,6.72282 9.60426,8.16354 l 10.08432,2.40102 c 12.96576,2.88125 17.7678,8.16353 17.7678,17.28755 0,11.52504 -10.56456,19.68858 -25.4511,19.68858 -15.84702,0 -25.45109,-7.6833 -26.41157,-20.16882 h 12.96557 c 0.96012,6.723 5.76252,10.0845 13.446,10.0845 7.6833,0 12.48552,-3.3615 12.48552,-8.64378 0,-4.32198 -2.4012,-6.723 -9.12402,-8.16372 l -10.0845,-2.40102 c -12.00528,-2.88126 -17.7678,-8.64378 -17.7678,-18.24785 0,-11.04498 9.60426,-18.72828 24.4908,-18.72828 z m 35.05536,-15.84684 c 0,-4.32198 3.3615,-7.68348 7.6833,-7.68348 4.3218,0 7.6833,3.3615 7.6833,7.68348 0,4.3218 -3.3615,7.6833 -7.6833,7.6833 -4.3218,0 -7.6833,-3.3615 -7.6833,-7.6833 z m 0.96012,16.80732 h 12.96576 v 64.34801 h -12.96576 z m 67.70969,22.0896 c -1.44108,-6.723 -6.24276,-12.48552 -14.88654,-12.48552 -10.0845,0 -16.80732,8.64378 -16.80732,22.08978 0,13.92605 6.72282,22.08959 16.80732,22.08959 8.16354,0 12.96576,-4.3218 14.88654,-12.00528 h 12.48534 c -1.44108,13.446 -12.0051,23.05008 -27.37188,23.05008 -18.24804,0 -29.77307,-12.48534 -29.77307,-33.13439 0,-20.16882 11.52503,-33.13458 29.77307,-33.13458 16.32708,0 25.93134,10.56474 27.37188,23.05008 l -12.48534,0.48096 z M 234.72159,213.69611 c -3.3615,3.84174 -8.64378,7.20306 -13.92606,6.723 -0.96011,-5.76252 1.92078,-11.52504 4.80204,-14.88654 3.3615,-4.32198 9.12402,-7.20324 13.92606,-7.20324 0.48097,5.28228 -1.44108,11.0448 -4.80204,15.36678 z m 4.80204,7.6833 c 2.88126,0 11.52504,0.96012 17.28756,9.60426 -0.48097,0.48096 -10.08432,6.24276 -10.08432,18.24804 0,14.4063 12.48534,19.20833 12.48534,19.20833 0,0.48097 -1.92078,6.723 -6.24258,13.44582 -3.84174,5.76252 -8.16372,11.52504 -14.40648,11.52504 -6.24258,0 -8.16354,-3.84156 -15.3666,-3.84156 -7.20324,0 -9.60426,3.84156 -15.36678,3.84156 -6.24276,0 -11.04479,-6.24276 -14.88653,-12.00528 -8.16354,-12.0051 -14.4063,-33.61463 -5.76252,-48.02093 3.84174,-7.20306 11.52503,-12.00528 19.20852,-12.00528 6.24275,0 12.00527,4.32198 15.36659,4.32198 3.3615,0 10.0845,-4.80222 17.7678,-4.32198 z"
       id="path197"
       style="stroke-width:4.80209;fill:#ffffff;fill-opacity:1" />
  </g>
</svg>
