<?xml version="1.0" encoding="UTF-8" standalone="no"?>
<svg
   xmlns:dc="http://purl.org/dc/elements/1.1/"
   xmlns:cc="http://creativecommons.org/ns#"
   xmlns:rdf="http://www.w3.org/1999/02/22-rdf-syntax-ns#"
   xmlns:svg="http://www.w3.org/2000/svg"
   xmlns="http://www.w3.org/2000/svg"
   xmlns:sodipodi="http://sodipodi.sourceforge.net/DTD/sodipodi-0.dtd"
   xmlns:inkscape="http://www.inkscape.org/namespaces/inkscape"
   viewBox="0 0 155.92427 109.2"
   version="1.1"
   id="svg15"
   sodipodi:docname="YouTube_pelkkäLogo_2017.svg"
   width="155.92427"
   height="109.2"
   inkscape:version="1.0.2 (e86c870879, 2021-01-15, custom)">
  <metadata
     id="metadata21">
    <rdf:RDF>
      <cc:Work
         rdf:about="">
        <dc:format>image/svg+xml</dc:format>
        <dc:type
           rdf:resource="http://purl.org/dc/dcmitype/StillImage" />
        <dc:title></dc:title>
      </cc:Work>
    </rdf:RDF>
  </metadata>
  <defs
     id="defs19" />
  <sodipodi:namedview
     pagecolor="#ffffff"
     bordercolor="#666666"
     borderopacity="1"
     objecttolerance="10"
     gridtolerance="10"
     guidetolerance="10"
     inkscape:pageopacity="0"
     inkscape:pageshadow="2"
     inkscape:window-width="1600"
     inkscape:window-height="837"
     id="namedview17"
     showgrid="false"
     fit-margin-top="0"
     fit-margin-left="0"
     fit-margin-right="0"
     fit-margin-bottom="0"
     inkscape:zoom="2.1199187"
     inkscape:cx="244.18326"
     inkscape:cy="54.6"
     inkscape:window-x="-8"
     inkscape:window-y="-8"
     inkscape:window-maximized="1"
     inkscape:current-layer="svg15" />
  <path
     d="m 152.48326,17.1 a 19.6,19.6 0 0 0 -13.8,-13.8 C 126.58326,0 77.883258,0 77.883258,0 c 0,0 -48.7,0.1 -60.8,3.4 A 19.6,19.6 0 0 0 3.2832577,17.2 c -3.65999997,21.5 -5.08,54.26 0.1,74.9 a 19.6,19.6 0 0 0 13.8000003,13.8 c 12.1,3.3 60.8,3.3 60.8,3.3 0,0 48.700002,0 60.800002,-3.3 a 19.6,19.6 0 0 0 13.8,-13.8 c 3.86,-21.53 5.05,-54.27 -0.1,-75 z"
     fill="#ff0000"
     id="path2" />
  <path
     fill="#ffffff"
     d="M 62.383258,78 102.78326,54.6 62.383258,31.2 Z"
     id="path4" />
</svg>
